<?xml version="1.0" standalone="no"?>
<!DOCTYPE svg PUBLIC "-//W3C//DTD SVG 20010904//EN"
 "http://www.w3.org/TR/2001/REC-SVG-20010904/DTD/svg10.dtd">
<svg version="1.0" xmlns="http://www.w3.org/2000/svg"
 width="200.000000pt" height="200.000000pt" viewBox="0 0 200.000000 200.000000"
 preserveAspectRatio="xMidYMid meet">

<g transform="translate(0.000000,200.000000) scale(0.100000,-0.100000)"
fill="#000000" stroke="none">
<path d="M320 1169 c0 -90 2 -100 18 -97 11 2 19 16 22 42 l5 40 29 -42 c21
-30 36 -42 54 -42 l24 0 -34 43 c-51 63 -51 63 -17 102 24 27 29 39 21 47 -7
7 -13 10 -15 7 -1 -2 -17 -21 -35 -42 l-32 -38 0 41 c0 33 -3 40 -20 40 -19 0
-20 -7 -20 -101z"/>
<path d="M587 1173 c1 -80 4 -99 17 -101 13 -3 16 6 16 40 l1 43 37 -44 c25
-28 44 -42 56 -40 16 3 12 11 -22 54 l-40 49 35 42 c24 30 30 44 22 50 -8 4
-26 -9 -50 -37 l-38 -44 -1 43 c0 33 -4 42 -17 42 -16 0 -18 -11 -16 -97z"/>
<path d="M850 1192 c0 -92 11 -111 65 -119 31 -4 46 0 68 17 25 20 27 26 27
101 0 69 -2 79 -17 79 -15 0 -17 -8 -15 -48 2 -26 0 -63 -5 -82 -8 -30 -14
-35 -41 -38 -27 -3 -34 1 -42 23 -6 14 -10 53 -10 86 0 46 -3 59 -15 59 -12 0
-15 -15 -15 -78z"/>
<path d="M170 1010 c0 -127 4 -200 10 -200 6 0 10 73 10 200 0 127 -4 200 -10
200 -6 0 -10 -73 -10 -200z"/>
<path d="M320 830 c0 -93 1 -100 20 -100 17 0 20 7 20 40 0 39 1 40 33 40 60
0 88 59 47 100 -15 15 -33 20 -70 20 l-50 0 0 -100z m95 35 c0 -25 -4 -30 -27
-33 -26 -3 -28 -1 -28 33 0 34 2 36 28 33 23 -3 27 -8 27 -33z"/>
<path d="M510 925 c-1 -3 -1 -47 -1 -97 l-1 -93 56 -3 c34 -2 56 1 56 8 0 5
-18 10 -40 10 l-40 0 0 90 c0 73 -3 90 -15 90 -8 0 -15 -2 -15 -5z"/>
<path d="M713 913 c-4 -10 -21 -55 -39 -100 -30 -78 -31 -83 -13 -83 13 0 24
10 30 30 9 26 16 30 45 30 30 0 37 -4 45 -30 7 -19 18 -30 30 -30 17 0 16 6
-11 81 -17 44 -35 89 -40 100 -13 24 -38 25 -47 2z m41 -69 c5 -16 2 -23 -14
-27 -21 -5 -27 14 -14 48 8 19 19 10 28 -21z"/>
<path d="M857 923 c-15 -14 -6 -23 23 -23 l30 0 0 -85 c0 -78 2 -85 20 -85 18
0 20 7 20 85 l0 85 30 0 c20 0 30 5 30 15 0 12 -15 15 -73 15 -41 0 -77 -3
-80 -7z"/>
<path d="M1050 830 c0 -93 1 -100 20 -100 16 0 20 6 19 28 -4 62 0 72 26 72
14 0 25 5 25 10 0 6 -11 10 -25 10 -20 0 -25 5 -25 25 0 23 4 25 41 25 65 0
44 24 -24 28 l-57 3 0 -101z"/>
<path d="M1225 905 c-33 -32 -35 -110 -4 -149 17 -22 29 -26 68 -26 65 0 85
22 85 96 1 49 -2 59 -27 80 -38 32 -90 32 -122 -1z m105 -24 c15 -30 12 -97
-6 -115 -19 -20 -58 -21 -74 -1 -16 19 -16 100 0 120 18 22 67 19 80 -4z"/>
<path d="M1428 924 c-5 -4 -8 -49 -8 -101 0 -85 2 -93 19 -93 17 0 20 8 23 48
l3 47 34 -47 c20 -28 43 -48 53 -48 17 0 16 5 -10 41 l-28 42 23 23 c44 44 21
84 -53 91 -27 3 -52 1 -56 -3z m90 -48 c4 -20 -13 -36 -40 -36 -13 0 -18 8
-18 31 0 27 3 30 27 27 18 -2 29 -10 31 -22z"/>
<path d="M1619 928 c0 -2 -6 -47 -13 -100 -11 -91 -11 -98 5 -98 14 0 19 12
24 58 9 85 11 90 18 72 3 -8 13 -41 22 -72 14 -49 20 -58 39 -58 19 0 25 10
41 72 19 75 33 74 34 -4 1 -47 10 -68 28 -68 13 0 14 10 9 58 -16 141 -17 142
-41 142 -20 0 -26 -9 -40 -57 -33 -118 -30 -116 -56 -28 -20 66 -29 81 -47 83
-12 2 -22 2 -23 0z"/>
</g>
</svg>
